<?xml version="1.0" standalone="no"?>
<!DOCTYPE svg PUBLIC "-//W3C//DTD SVG 20010904//EN"
 "http://www.w3.org/TR/2001/REC-SVG-20010904/DTD/svg10.dtd">
<svg version="1.0" xmlns="http://www.w3.org/2000/svg"
 width="679.000000pt" height="679.000000pt" viewBox="0 0 679.000000 679.000000"
 preserveAspectRatio="xMidYMid meet">
<metadata>
Created by potrace 1.11, written by Peter Selinger 2001-2013
</metadata>
<g transform="translate(0.000000,679.000000) scale(0.100000,-0.100000)"
fill="#000000" stroke="none">
<path d="M2834 5888 c-7 -22 16 -48 43 -48 7 0 13 -4 13 -8 0 -4 13 -16 30
-25 75 -45 220 -219 236 -284 4 -13 10 -23 14 -23 4 0 11 -12 14 -26 7 -25 38
-101 57 -136 5 -10 9 -27 9 -37 0 -11 4 -22 9 -25 4 -3 16 -34 26 -68 9 -35
20 -67 23 -73 3 -5 7 -18 8 -30 3 -24 31 -141 44 -175 4 -14 11 -49 14 -77 4
-42 2 -53 -9 -53 -8 0 -15 4 -15 8 0 5 -22 24 -50 43 -27 19 -50 38 -50 42 0
5 -4 5 -10 2 -5 -3 -10 -1 -10 4 0 6 -3 10 -7 9 -15 -5 -119 72 -153 113 -34
41 -65 99 -53 99 3 0 1 6 -5 13 -6 6 -13 29 -17 50 -4 20 -11 37 -16 37 -5 0
-9 6 -9 13 0 7 -9 23 -20 35 -12 12 -17 22 -13 22 4 0 -16 21 -44 48 -62 59
-91 82 -101 82 -4 0 -13 5 -20 12 -10 10 -66 34 -102 43 -8 2 -15 4 -15 5 0 1
-7 3 -15 5 -42 11 -71 15 -125 19 -33 3 -61 6 -62 6 -8 5 -62 3 -76 -3 -9 -3
-19 -2 -22 2 -3 5 -24 5 -47 0 -31 -8 -43 -7 -49 3 -6 9 -9 9 -9 1 0 -6 -12
-11 -27 -11 -16 0 -48 -5 -73 -12 -25 -7 -52 -14 -60 -15 -8 -2 -16 -4 -17 -5
-2 -2 -6 -3 -10 -5 -5 -1 -21 -8 -38 -15 -16 -7 -32 -14 -35 -15 -30 -8 -50
-18 -50 -26 0 -5 -3 -8 -7 -7 -15 3 -63 -22 -63 -32 0 -5 -5 -10 -12 -10 -11
0 -138 -125 -138 -136 0 -3 -11 -20 -24 -37 -26 -34 -83 -153 -90 -187 -5 -22
-43 -100 -48 -100 -5 0 -8 -7 -8 -15 0 -8 -4 -15 -9 -15 -5 0 -12 -7 -15 -16
-6 -16 3 -15 59 6 11 4 23 8 27 9 4 1 26 8 49 16 23 8 56 15 75 15 18 0 36 5
39 10 4 7 12 7 24 0 10 -5 20 -7 22 -5 7 6 100 6 148 0 39 -6 118 -30 176 -55
78 -33 188 -70 195 -65 6 4 10 1 10 -5 0 -6 4 -9 8 -6 5 3 33 -1 64 -8 30 -7
100 -12 154 -11 166 4 288 56 384 164 37 42 48 49 70 44 25 -6 156 -90 189
-121 10 -9 37 -34 60 -54 23 -21 39 -38 35 -38 -4 0 5 -11 20 -25 15 -14 23
-25 19 -25 -4 0 -3 -4 3 -8 16 -11 81 -122 89 -152 0 -3 6 -21 13 -40 6 -19
13 -46 16 -60 2 -14 7 -32 10 -40 7 -18 17 -66 20 -100 2 -14 5 -32 7 -40 3
-12 -7 -15 -46 -17 -27 -1 -66 3 -85 7 -19 5 -51 12 -70 15 -38 6 -99 24 -115
34 -5 3 -14 6 -20 6 -14 1 -23 5 -180 71 -22 9 -44 18 -50 18 -5 1 -30 8 -55
15 -165 51 -345 49 -545 -3 -33 -9 -159 -59 -165 -65 -3 -3 -21 -14 -40 -24
-44 -22 -126 -79 -150 -103 -9 -11 -26 -26 -36 -35 -29 -24 -127 -138 -144
-168 -8 -14 -17 -28 -20 -31 -12 -11 -60 -90 -60 -98 0 -4 -8 -19 -17 -32 -10
-14 -18 -29 -19 -35 -1 -5 -11 -30 -22 -55 -23 -49 -61 -153 -68 -185 -2 -11
-7 -35 -10 -52 -3 -18 -9 -33 -13 -33 -3 0 -7 -12 -8 -27 -3 -56 -11 -109 -20
-133 -5 -14 -8 -41 -7 -60 0 -19 -3 -41 -9 -47 -6 -9 -6 -13 0 -13 7 0 7 -21
1 -57 -6 -32 -7 -103 -3 -158 4 -55 9 -122 10 -150 2 -27 4 -50 5 -50 1 0 3
-18 5 -40 1 -22 6 -52 10 -65 5 -14 10 -38 11 -55 2 -16 8 -48 14 -70 7 -22
13 -52 15 -66 1 -14 9 -37 16 -50 7 -13 12 -25 11 -26 -2 -3 -2 -7 2 -28 1 -5
8 -30 16 -55 8 -25 14 -49 15 -55 0 -5 3 -14 6 -20 4 -5 14 -35 24 -65 10 -30
22 -61 28 -67 5 -7 6 -13 2 -13 -4 0 -1 -7 6 -16 7 -9 14 -23 15 -31 1 -8 9
-29 18 -46 35 -74 55 -127 48 -127 -4 0 -2 -4 3 -8 6 -4 20 -27 33 -52 38 -73
67 -125 72 -130 3 -3 11 -16 18 -30 25 -51 100 -168 129 -200 13 -14 23 -29
23 -35 0 -6 8 -18 18 -27 21 -21 42 -46 42 -52 0 -2 26 -32 57 -66 32 -35 57
-67 56 -71 -2 -5 1 -9 7 -9 14 0 50 -30 86 -72 6 -7 21 -20 34 -28 12 -8 28
-21 36 -27 7 -7 17 -13 23 -13 6 0 11 -4 11 -9 0 -5 14 -14 30 -21 17 -7 30
-16 30 -21 0 -5 6 -9 14 -9 7 0 19 -7 26 -15 7 -8 16 -12 21 -9 5 3 9 0 9 -7
0 -7 3 -9 7 -6 3 4 13 1 21 -5 8 -7 19 -13 26 -14 6 -1 30 -9 53 -17 22 -9 44
-13 47 -10 3 4 6 1 6 -6 0 -7 6 -11 13 -8 6 2 26 0 42 -6 37 -11 230 -16 270
-5 33 8 88 18 121 22 11 2 26 6 33 10 6 4 24 9 39 11 45 7 71 13 84 21 7 4 29
8 50 8 21 0 38 3 38 7 0 4 16 5 35 3 19 -1 36 0 39 4 6 11 161 2 196 -11 8 -3
31 -8 50 -11 49 -8 91 -18 125 -29 26 -8 73 -18 105 -22 14 -2 25 -4 25 -5 0
-12 164 -16 205 -6 36 10 72 17 95 20 12 1 27 6 35 11 8 5 21 10 30 11 32 5
50 10 56 17 4 4 16 7 26 7 10 0 18 5 18 12 0 6 3 9 6 5 3 -3 27 8 54 24 26 16
52 29 59 29 6 0 11 3 11 8 0 4 13 13 29 20 16 7 42 25 57 39 16 15 34 28 41
29 6 1 27 17 46 35 19 19 66 65 106 102 39 38 71 73 71 78 0 5 7 9 15 9 8 0
15 6 15 13 0 6 14 26 31 42 17 17 38 42 47 58 9 15 20 27 24 27 4 0 8 6 8 13
0 8 9 22 20 32 11 10 20 24 20 32 0 7 5 13 10 13 6 0 10 5 10 11 0 6 7 17 15
26 8 8 13 19 10 24 -4 5 -2 9 4 9 10 0 29 30 56 93 10 20 21 37 25 37 4 0 11
12 15 27 3 15 15 39 26 54 10 15 19 31 19 37 0 5 6 22 14 38 13 27 22 49 56
129 39 95 103 300 116 375 3 14 7 33 10 42 8 27 14 60 20 113 3 28 9 70 15 95
5 25 8 60 6 78 -3 18 -1 34 3 37 9 5 10 336 2 350 -4 6 -7 28 -7 50 -1 22 -4
56 -8 75 -4 19 -9 53 -11 75 -3 22 -5 40 -6 40 -1 0 -3 11 -5 25 -2 14 -6 36
-10 50 -3 14 -8 35 -11 47 -7 37 -71 221 -88 255 -9 17 -16 37 -16 45 0 7 -4
13 -10 13 -5 0 -10 7 -10 15 0 16 -28 65 -43 76 -5 3 -7 8 -6 10 3 4 -31 60
-41 69 -3 3 -17 21 -30 40 -37 55 -158 172 -206 201 -25 14 -41 28 -37 32 3 4
0 7 -8 7 -16 0 -81 31 -102 48 -7 6 -14 10 -17 9 -4 -2 -70 17 -110 31 -31 10
-106 20 -201 26 -43 2 -244 -17 -244 -24 0 -1 -13 -4 -30 -6 -16 -3 -41 -9
-55 -15 -14 -5 -42 -11 -61 -13 -20 -2 -41 -6 -46 -9 -11 -7 -106 -32 -181
-48 -24 -5 -47 -11 -52 -14 -5 -3 -22 -8 -37 -10 -16 -2 -66 -10 -113 -18 -47
-8 -102 -15 -122 -16 -37 -2 -38 -1 -40 36 -5 120 -4 155 4 218 5 39 9 78 9
87 0 10 4 20 10 23 5 4 9 15 9 26 0 10 4 19 9 19 5 0 13 9 16 21 9 26 63 59
84 51 9 -3 26 -16 39 -29 43 -43 89 -55 187 -50 129 8 155 18 222 89 108 113
148 148 193 170 48 24 56 26 110 34 19 3 46 8 60 11 23 6 32 8 53 11 5 1 -11
18 -35 38 -23 20 -64 59 -90 86 -27 27 -48 45 -48 41 0 -4 -7 3 -16 15 -8 12
-20 20 -25 17 -5 -4 -9 -2 -9 2 0 11 -70 43 -92 43 -8 0 -18 3 -22 7 -9 9 -41
15 -88 17 -21 0 -38 4 -38 7 0 6 -123 3 -150 -4 -8 -2 -33 -7 -55 -12 -22 -4
-52 -14 -66 -21 -15 -7 -29 -10 -33 -7 -3 4 -6 1 -6 -6 0 -6 -11 -16 -25 -21
-27 -10 -33 -15 -76 -52 -52 -46 -57 -64 -54 -193 3 -106 1 -124 -16 -152 -12
-18 -18 -33 -14 -33 3 0 -3 -10 -15 -22 -11 -12 -20 -25 -20 -28 0 -4 -9 -17
-20 -30 -11 -13 -20 -29 -20 -37 0 -27 -39 11 -58 54 -9 24 -20 43 -24 43 -5
0 -8 12 -8 26 0 14 -6 40 -14 57 -8 18 -18 46 -22 62 -10 42 -11 45 -14 48 -1
1 -3 14 -4 28 -3 25 -9 53 -38 167 -7 26 -13 49 -13 52 -1 3 -7 22 -14 43 -7
21 -10 44 -7 52 3 8 1 15 -4 15 -6 0 -9 3 -8 8 1 4 -6 23 -14 42 -9 19 -28 74
-43 123 -15 48 -32 87 -38 87 -6 0 -8 3 -4 6 11 12 -43 101 -97 157 -30 31
-57 57 -61 57 -3 0 -22 17 -40 38 -19 20 -35 33 -35 29 0 -4 -11 2 -24 15 -29
27 -72 58 -83 59 -5 1 -17 8 -28 15 -28 20 -43 17 -51 -8z"/>
<path d="M403 5502 c-13 -2 -23 -8 -23 -13 0 -5 -8 -9 -18 -9 -35 0 -71 -55
-79 -120 -2 -19 -5 -40 -8 -47 -2 -7 0 -15 6 -18 5 -4 6 -11 3 -17 -6 -9 -8
-196 -3 -223 1 -5 0 -14 -1 -20 -2 -12 -2 -698 1 -705 1 -3 0 -9 -1 -15 -2
-12 -2 -206 1 -220 1 -5 0 -14 -1 -20 -1 -5 -2 -72 -2 -148 0 -218 -40 -325
-159 -422 -13 -11 -26 -20 -29 -21 -3 0 -12 -4 -21 -8 -9 -4 -20 -6 -25 -5
-25 6 -44 -15 -44 -47 0 -19 4 -34 8 -34 5 0 5 -26 2 -57 -9 -72 -2 -338 8
-339 4 0 15 -4 24 -8 9 -4 23 -8 30 -10 26 -3 118 -78 118 -95 0 -6 4 -11 8
-11 8 0 30 -40 63 -115 8 -19 14 -85 15 -185 2 -85 4 -157 5 -160 1 -3 0 -9
-1 -15 -2 -12 -2 -206 1 -220 1 -5 0 -14 -1 -20 -2 -12 -2 -698 1 -705 1 -3 0
-9 -1 -15 -2 -12 -2 -206 1 -220 1 -5 0 -14 -1 -20 -3 -13 0 -162 4 -193 1
-13 9 -28 17 -33 8 -5 10 -9 6 -9 -14 0 14 -40 28 -40 8 0 15 -4 15 -9 0 -20
64 -24 453 -25 l407 -1 0 265 0 265 -152 0 c-84 -1 -159 1 -166 3 -7 3 -12 18
-10 38 1 18 -1 36 -4 40 -4 3 -3 17 2 30 6 14 6 26 0 29 -6 3 -5 16 0 31 7 18
7 23 -2 18 -7 -5 -8 -3 -3 6 9 15 10 134 0 149 -3 6 -2 11 3 11 5 0 6 17 2 40
-4 22 -5 40 -1 40 7 0 6 119 -2 127 -3 3 -2 16 3 29 6 14 6 26 0 29 -6 3 -5
16 0 31 7 18 7 23 -2 18 -7 -4 -8 -3 -4 5 11 16 13 122 4 128 -5 2 -5 9 -2 15
8 13 7 154 -1 168 -3 5 -2 10 3 10 5 0 6 17 2 40 -4 22 -5 40 -1 40 7 0 6 119
-2 127 -3 3 -2 16 3 29 6 14 6 26 0 29 -6 3 -5 16 0 31 7 18 7 23 -2 18 -7 -4
-8 -3 -4 5 11 16 13 122 4 128 -5 2 -6 8 -3 13 12 20 -31 149 -68 203 -10 15
-15 27 -10 27 4 0 3 4 -2 8 -6 4 -23 25 -39 47 -17 22 -38 47 -47 55 -16 13
-13 18 33 69 58 64 103 148 122 230 8 33 16 64 20 69 3 5 1 23 -4 41 -5 17 -5
31 -1 31 8 0 6 53 -2 67 -3 5 -2 15 3 22 4 8 4 27 0 42 -5 16 -5 29 -1 29 4 0
6 15 4 33 -5 38 -4 100 2 105 2 2 -1 17 -5 33 -5 16 -5 29 -1 29 5 0 5 18 1
40 -4 22 -5 40 -1 40 7 0 6 119 -2 127 -3 3 -2 16 3 29 6 14 6 26 0 29 -6 3
-5 16 0 31 7 18 7 23 -2 18 -7 -4 -8 -3 -4 5 11 16 13 122 4 128 -5 2 -5 9 -2
15 9 14 8 114 -1 128 -3 5 -2 10 2 10 10 0 9 52 0 67 -3 5 -2 15 3 22 4 8 4
27 0 42 -5 16 -5 29 -1 29 4 0 6 12 4 28 -8 80 -9 93 -3 97 3 2 5 17 4 34 -2
37 -4 37 179 35 l147 -1 -2 271 -3 270 -390 0 c-214 1 -400 0 -412 -2z"/>
<path d="M5594 5469 c-3 -6 -6 -232 -5 -431 l1 -98 161 -2 161 -3 -1 -655 c0
-424 3 -680 10 -725 11 -68 42 -167 62 -192 5 -7 7 -13 3 -13 -6 0 14 -24 76
-93 l37 -41 -37 -46 c-20 -25 -39 -47 -43 -50 -3 -3 -23 -38 -43 -79 -63 -125
-65 -140 -65 -886 0 -369 0 -686 0 -705 l-1 -36 -160 1 -160 1 0 -78 c-1 -43
-1 -134 -1 -203 0 -69 0 -153 1 -188 l0 -63 403 1 c221 1 412 4 425 9 12 4 22
12 22 18 0 6 3 8 7 5 7 -8 53 39 54 56 0 7 2 21 5 32 2 11 4 385 4 830 1 680
3 820 16 874 8 36 19 71 25 78 7 7 8 13 5 13 -10 0 30 57 68 98 17 17 36 32
43 32 7 0 13 4 13 9 0 8 74 44 95 45 6 1 10 86 10 236 l0 235 -22 1 c-40 2
-87 28 -128 70 -34 34 -80 103 -76 112 1 1 -6 16 -14 32 -8 16 -15 33 -15 37
-1 5 -5 24 -10 43 -5 20 -9 373 -9 829 0 586 -3 796 -11 801 -7 4 -11 9 -11
11 3 22 -18 48 -52 64 -40 18 -65 20 -440 20 -220 0 -401 -3 -403 -6z"/>
</g>
</svg>
